# File created by Blade
# Date/Time:  Tue Jan 27 19:54:32 2015
#---------------------------------------------------------
:version 1.10
:name HOM
:units
  mass 1.0
  length 1.000000
  angle deg
:documentation
     Acclaim Skeleton File
:root
   axis xyz
   order TX TY TZ RX RY RZ
   position 0.000000 0.000000 0.000000
   orientation 0 0 0
:bonedata
   begin
      id 1
      name Spine_dum
      direction 0.000000 1.000000 0.000000
      length 6.116652
      axis 0.0 0.0 0.0 xyz
   end
   begin
      id 2
      name LeftUpLeg_dum
      direction 1.000000 0.000000 0.000000
      length 4.711765
      axis 0.0 0.0 0.0 xyz
   end
   begin
      id 3
      name RightUpLeg_dum
      direction -1.000000 0.000000 0.000000
      length 4.711765
      axis 0.0 0.0 0.0 xyz
   end
   begin
      id 4
      name Spine
      direction 0.000000 1.000000 0.000000
      length 0.000000
      axis 0.0 0.0 0.0 xyz
      dof rx ry rz
   end
   begin
      id 5
      name Spine_dum1
      direction 0.000000 1.000000 0.000000
      length 15.225563
      axis 0.0 0.0 0.0 xyz
   end
   begin
      id 6
      name Spine_dum2
      direction 0.000000 1.000000 0.000000
      length 8.977654
      axis 0.0 0.0 0.0 xyz
   end
   begin
      id 7
      name Spine_dum3
      direction 0.000000 1.000000 0.000000
      length 8.977654
      axis 0.0 0.0 0.0 xyz
   end
   begin
      id 8
      name Head
      direction 0.000000 1.000000 0.000000
      length 4.527550
      axis 0.0 0.0 0.0 xyz
      dof rx ry rz
   end
   begin
      id 9
      name LeftShoulder
      direction 1.000000 0.000000 0.000000
      length 7.110130
      axis 0.0 0.0 -90.0 xyz
      dof rx ry rz
   end
   begin
      id 10
      name LeftArm
      direction 1.000000 0.000000 0.000000
      length 10.398341
      axis 0.0 0.0 -90.0 xyz
      dof rx ry rz
   end
   begin
      id 11
      name LeftForeArm
      direction 1.000000 0.000000 0.000000
      length 8.888997
      axis 0.0 0.0 -90.0 xyz
      dof ry rz rx
   end
   begin
      id 12
      name LeftHand
      direction 0.000000 0.000000 0.000000
      length 0.000000
      axis 0.0 0.0 -90.0 xyz
      dof rx ry rz
   end
   begin
      id 13
      name LeftHand_dum1
      direction 0.000000 0.000000 0.000000
      length 0.000000
      axis 0.0 0.0 -90.0 xyz
   end
   begin
      id 14
      name LeftHand_dum2
      direction 1.000000 0.000000 0.000000
      length 3.937000
      axis 0.0 0.0 -90.0 xyz
   end
   begin
      id 15
      name LeftHandThumb1
      direction 0.000000 0.000000 1.000000
      length 3.937000
      axis 0.0 0.0 -90.0 xyz
      dof rx rz ry
   end
   begin
      id 16
      name RightShoulder
      direction -1.000000 0.000000 0.000000
      length 7.110130
      axis 0.0 0.0 90.0 xyz
      dof rx ry rz
   end
   begin
      id 17
      name RightArm
      direction -1.000000 0.000000 0.000000
      length 10.398341
      axis 0.0 0.0 90.0 xyz
      dof rx ry rz
   end
   begin
      id 18
      name RightForeArm
      direction -1.000000 0.000000 0.000000
      length 8.888997
      axis 0.0 0.0 90.0 xyz
      dof ry rz rx
   end
   begin
      id 19
      name RightHand
      direction 0.000000 0.000000 0.000000
      length 0.000000
      axis 0.0 0.0 90.0 xyz
      dof rx ry rz
   end
   begin
      id 20
      name RightHand_dum1
      direction 0.000000 0.000000 0.000000
      length 0.000000
      axis 0.0 0.0 90.0 xyz
   end
   begin
      id 21
      name RightHand_dum2
      direction -1.000000 0.000000 0.000000
      length 3.937000
      axis 0.0 0.0 90.0 xyz
   end
   begin
      id 22
      name RightHandThumb1
      direction 0.000000 0.000000 1.000000
      length 3.937000
      axis 0.0 0.0 90.0 xyz
      dof rx rz ry
   end
   begin
      id 23
      name LeftUpLeg
      direction 0.000000 -1.000000 0.000000
      length 15.510451
      axis 0.0 0.0 0.0 xyz
      dof rx ry rz
   end
   begin
      id 24
      name LeftLeg
      direction 0.000000 -1.000000 0.000000
      length 14.858061
      axis 0.0 0.0 0.0 xyz
      dof rx ry rz
   end
   begin
      id 25
      name LeftFoot
      direction 0.000000 -0.258819 0.965926
      length 5.128852
      axis 15.0 0.0 0.0 xyz
      dof rx ry rz
   end
   begin
      id 26
      name LeftToeBase
      direction 0.000000 0.000000 1.000000
      length 2.952750
      axis 0.0 0.0 0.0 xyz
      dof rx ry rz
   end
   begin
      id 27
      name RightUpLeg
      direction 0.000000 -1.000000 0.000000
      length 15.510451
      axis 0.0 0.0 0.0 xyz
      dof rx ry rz
   end
   begin
      id 28
      name RightLeg
      direction 0.000000 -1.000000 0.000000
      length 14.858061
      axis 0.0 0.0 0.0 xyz
      dof rx ry rz
   end
   begin
      id 29
      name RightFoot
      direction 0.000000 -0.258819 0.965926
      length 5.128852
      axis 15.0 0.0 0.0 xyz
      dof rx ry rz
   end
   begin
      id 30
      name RightToeBase
      direction 0.000000 0.000000 1.000000
      length 2.952750
      axis 0.0 0.0 0.0 xyz
      dof rx ry rz
   end
:hierarchy
   begin
      root Spine_dum LeftUpLeg_dum RightUpLeg_dum
      Spine_dum Spine
      LeftUpLeg_dum LeftUpLeg
      RightUpLeg_dum RightUpLeg
      Spine Spine_dum1 Spine_dum2 Spine_dum3
      Spine_dum1 Head
      Spine_dum2 LeftShoulder
      Spine_dum3 RightShoulder
      LeftShoulder LeftArm
      LeftArm LeftForeArm
      LeftForeArm LeftHand
      LeftHand LeftHand_dum1 LeftHand_dum2
      LeftHand_dum1 LeftHandThumb1
      RightShoulder RightArm
      RightArm RightForeArm
      RightForeArm RightHand
      RightHand RightHand_dum1 RightHand_dum2
      RightHand_dum1 RightHandThumb1
      LeftUpLeg LeftLeg
      LeftLeg LeftFoot
      LeftFoot LeftToeBase
      RightUpLeg RightLeg
      RightLeg RightFoot
      RightFoot RightToeBase
   end

# File created by Blade
# Date/Time:  Tue Jan 27 19:54:25 2015
# Frame Rate: 120.000 fps
#------------------------------------------------------
:FULLY-SPECIFIED
:DEGREES
1573
root 5.634143 32.960312 -1.040299 -7.777067 -15.506968 -12.626895
Spine 14.800281 5.787573 10.850723
Head 6.054965 -0.485503 3.396865
LeftShoulder -14.302228 -5.789670 28.928148
LeftArm 5.449421 -2.309957 -76.649603
LeftForeArm -17.591189 0.000000 124.910069
LeftHand 0.035946 0.000000 3.031908
LeftHandThumb1 -26.253704 0.000000 33.147579
RightShoulder -17.674007 -17.483769 -20.134424
RightArm 8.189600 -26.071514 86.536292
RightForeArm -17.666288 -0.000000 23.076909
RightHand 17.081452 -0.000000 7.851899
RightHandThumb1 -24.326973 -0.000000 -32.862282
LeftUpLeg 14.536521 10.911234 6.537662
LeftLeg 0.764290 -0.000000 -0.000000
LeftFoot -19.904781 19.071826 -17.495395
LeftToeBase 20.182668 -0.000000 -0.000000
RightUpLeg -74.963453 6.928252 22.626286
RightLeg 103.118321 -0.000000 -0.000000
RightFoot 18.013201 -34.498300 17.959480
RightToeBase 10.407207 -0.000000 -0.000000
1574
root 5.638862 32.960245 -1.046415 -7.782140 -15.502179 -12.635763
Spine 14.831934 5.726526 10.819675
Head 6.045157 -0.491831 3.475715
LeftShoulder -14.292398 -5.830692 28.944933
LeftArm 5.512771 -2.245255 -76.612779
LeftForeArm -17.730474 -0.000000 124.886872
LeftHand 0.009418 -0.000000 3.060975
LeftHandThumb1 -26.253704 0.000000 33.147579
RightShoulder -17.708688 -17.490984 -20.115699
RightArm 8.114441 -26.080438 86.592124
RightForeArm -17.768769 0.000000 23.042482
RightHand 17.060255 -0.000000 7.638112
RightHandThumb1 -24.326973 -0.000000 -32.862282
LeftUpLeg 14.540994 10.918217 6.541235
LeftLeg 0.742106 -0.000000 -0.000000
LeftFoot -19.880599 19.077642 -17.457045
LeftToeBase 20.169536 -0.000000 -0.000000
RightUpLeg -74.983373 6.927134 22.556017
RightLeg 103.029639 -0.000000 -0.000000
RightFoot 18.268262 -34.371168 17.389611
RightToeBase 10.387353 -0.000000 -0.000000
1575
root 5.642949 32.960718 -1.054251 -7.777776 -15.499121 -12.661917
Spine 14.864171 5.719490 10.820632
Head 6.029719 -0.538428 3.540830
LeftShoulder -14.215570 -5.904548 28.961639
LeftArm 5.563170 -2.220882 -76.575152
LeftForeArm -17.832164 0.000000 124.867320
LeftHand -0.054647 -0.000000 2.981704
LeftHandThumb1 -26.253704 0.000000 33.147579
RightShoulder -17.798061 -17.542165 -20.060394
RightArm 8.054932 -26.058017 86.629273
RightForeArm -17.836818 -0.000000 23.049200
RightHand 17.087942 0.000000 7.438329
RightHandThumb1 -24.326973 -0.000000 -32.862282
LeftUpLeg 14.526007 10.948567 6.567970
LeftLeg 0.742969 -0.000000 -0.000000
LeftFoot -19.871679 19.068708 -17.410247
LeftToeBase 20.164628 -0.000000 -0.000000
RightUpLeg -75.004848 6.931318 22.493516
RightLeg 102.948431 -0.000000 -0.000000
RightFoot 18.269713 -34.374347 17.447724
RightToeBase 10.840172 -0.000000 -0.000000
1576
root 5.647500 32.960384 -1.060935 -7.775514 -15.484213 -12.657959
Spine 14.879891 5.661703 10.767769
Head 6.025392 -0.530050 3.620677
LeftShoulder -14.187788 -5.957146 29.007530
LeftArm 5.608096 -2.172744 -76.541254
LeftForeArm -17.821171 -0.000000 124.818444
LeftHand -0.034274 -0.000000 2.910475
LeftHandThumb1 -26.253704 0.000000 33.147579
RightShoulder -17.858433 -17.585961 -20.009232
RightArm 8.005988 -26.044353 86.657062
RightForeArm -17.784052 -0.000000 23.056928
RightHand 17.084732 -0.000000 7.444457
RightHandThumb1 -24.326973 -0.000000 -32.862282
LeftUpLeg 14.505232 10.970069 6.557826
LeftLeg 0.753279 -0.000000 -0.000000
LeftFoot -19.854403 19.051769 -17.344557
LeftToeBase 20.030197 -0.000000 -0.000000
RightUpLeg -75.041946 6.931898 22.390984
RightLeg 102.870158 -0.000000 -0.000000
RightFoot 18.201807 -34.410827 17.682540
RightToeBase 9.359337 -0.000000 -0.000000
1577
root 5.651907 32.959906 -1.066972 -7.770167 -15.457183 -12.649518
Spine 14.882376 5.595082 10.699551
Head 6.025921 -0.512642 3.711795
LeftShoulder -14.152232 -5.985213 29.054573
LeftArm 5.685845 -2.119621 -76.528459
LeftForeArm -17.908807 0.000000 124.771309
LeftHand -0.016622 -0.000000 3.047177
LeftHandThumb1 -26.253704 0.000000 33.147579
RightShoulder -17.903894 -17.630709 -19.947865
RightArm 7.905692 -25.966131 86.708519
RightForeArm -17.844818 -0.000000 23.114317
RightHand 17.046764 0.000000 7.291388
RightHandThumb1 -24.326973 -0.000000 -32.862282
LeftUpLeg 14.469711 10.971943 6.541089
LeftLeg 0.758534 -0.000000 -0.000000
LeftFoot -19.813384 19.072334 -17.287086
LeftToeBase 20.107256 -0.000000 -0.000000
RightUpLeg -75.090862 6.914738 22.292066
RightLeg 102.792516 -0.000000 -0.000000
RightFoot 18.326265 -34.376055 17.404762
RightToeBase 9.332339 -0.000000 -0.000000
1578
root 5.658007 32.958904 -1.073315 -7.774157 -15.426170 -12.628727
Spine 14.897717 5.505332 10.619672
Head 6.015604 -0.478785 3.793730
LeftShoulder -14.118216 -6.056939 29.097986
LeftArm 5.692418 -2.123956 -76.467010
LeftForeArm -18.052231 -0.000000 124.752018
LeftHand -0.214672 -0.000000 2.944842
LeftHandThumb1 -26.253704 0.000000 33.147579
RightShoulder -17.953733 -17.716645 -19.887078
RightArm 7.920581 -25.886896 86.725607
RightForeArm -17.788648 -0.000000 23.079655
RightHand 17.202899 0.000000 7.386842
RightHandThumb1 -24.326973 -0.000000 -32.862282
LeftUpLeg 14.435564 10.982311 6.510193
LeftLeg 0.773553 -0.000000 -0.000000
LeftFoot -19.779227 19.082733 -17.214869
LeftToeBase 20.164556 -0.000000 -0.000000
RightUpLeg -75.143137 6.875071 22.191208
RightLeg 102.737190 -0.000000 -0.000000
RightFoot 18.297478 -34.343844 17.464127
RightToeBase 10.711725 -0.000000 -0.000000
1579
root 5.663548 32.958345 -1.080379 -7.770021 -15.391424 -12.624995
Spine 14.904512 5.344914 10.547454
Head 6.014785 -0.411904 3.846687
LeftShoulder -14.145529 -6.081918 29.142323
LeftArm 5.715962 -2.116347 -76.412217
LeftForeArm -18.062939 -0.000000 124.678649
LeftHand -0.250780 -0.000000 2.792451
LeftHandThumb1 -26.253704 0.000000 33.147579
RightShoulder -17.924694 -17.771019 -19.858622
RightArm 7.856130 -25.753904 86.790217
RightForeArm -17.851471 0.000000 23.145356
RightHand 17.081196 -0.000000 7.327835
RightHandThumb1 -24.326973 -0.000000 -32.862282
LeftUpLeg 14.395323 11.002318 6.497743
LeftLeg 0.792318 -0.000000 -0.000000
LeftFoot -19.737337 19.088181 -17.122637
LeftToeBase 20.098614 -0.000000 -0.000000
RightUpLeg -75.189721 6.827924 22.095688
RightLeg 102.647536 -0.000000 -0.000000
RightFoot 18.384250 -34.368579 17.357420
RightToeBase 9.497900 -0.000000 -0.000000
1580
root 5.670339 32.957354 -1.087726 -7.777085 -15.340259 -12.609144
Spine 14.929185 5.241870 10.470804
Head 5.979279 -0.396717 3.917203
LeftShoulder -14.117157 -6.179861 29.193952
LeftArm 5.721051 -2.095146 -76.338361
LeftForeArm -18.081560 -0.000000 124.590665
LeftHand -0.169604 0.000000 2.684789
LeftHandThumb1 -26.253704 0.000000 33.147579
RightShoulder -17.972591 -17.801097 -19.810513
RightArm 7.781984 -25.647158 86.850125
RightForeArm -17.947171 -0.000000 23.157597
RightHand 17.095424 -0.000000 7.438343
RightHandThumb1 -24.326973 -0.000000 -32.862282
LeftUpLeg 14.356638 10.986115 6.463380
LeftLeg 0.814339 -0.000000 -0.000000
LeftFoot -19.731996 19.087761 -17.092432
LeftToeBase 20.114343 -0.000000 -0.000000
RightUpLeg -75.242790 6.755542 21.986618
RightLeg 102.579604 -0.000000 -0.000000
RightFoot 18.257381 -34.411196 17.595399
RightToeBase 9.419652 -0.000000 -0.000000
1581
root 5.677643 32.956344 -1.096045 -7.766042 -15.287265 -12.594809
Spine 14.926805 5.132355 10.394139
Head 5.966389 -0.392258 3.982403
LeftShoulder -14.085706 -6.232909 29.233482
LeftArm 5.744427 -2.070927 -76.281523
LeftForeArm -18.159198 -0.000000 124.527387
LeftHand -0.151696 -0.000000 2.632238
LeftHandThumb1 -26.253704 0.000000 33.147579
RightShoulder -18.008367 -17.824412 -19.777309
RightArm 7.708456 -25.579379 86.919663
RightForeArm -17.967899 -0.000000 23.136214
RightHand 17.101538 -0.000000 7.326640
RightHandThumb1 -24.326973 -0.000000 -32.862282
LeftUpLeg 14.300527 10.996967 6.431183
LeftLeg 0.828564 -0.000000 -0.000000
LeftFoot -19.695987 19.113377 -16.984153
LeftToeBase 20.154490 -0.000000 -0.000000
RightUpLeg -75.313534 6.674332 21.873587
RightLeg 102.503666 -0.000000 -0.000000
RightFoot 18.215562 -34.443774 17.665443
RightToeBase 9.319079 -0.000000 -0.000000
1582
root 5.679583 32.955964 -1.103016 -7.778327 -15.233406 -12.588865
Spine 14.950449 5.008233 10.302018
Head 5.938245 -0.382902 4.083179
LeftShoulder -14.033512 -6.291515 29.296658
LeftArm 5.722722 -2.108495 -76.230387
LeftForeArm -18.233709 -0.000000 124.488135
LeftHand -0.233233 0.000000 2.508974
LeftHandThumb1 -26.253704 0.000000 33.147579
RightShoulder -18.066739 -17.858173 -19.709351
RightArm 7.676963 -25.530629 86.955366
RightForeArm -17.987420 -0.000000 23.114464
RightHand 17.135587 -0.000000 7.493580
RightHandThumb1 -24.326973 -0.000000 -32.862282
LeftUpLeg 14.277022 11.016325 6.429001
LeftLeg 0.855888 -0.000000 -0.000000
LeftFoot -19.676510 19.064980 -16.915121
LeftToeBase 19.998560 -0.000000 -0.000000
RightUpLeg -75.348919 6.599107 21.773548
RightLeg 102.421952 -0.000000 -0.000000
RightFoot 18.226930 -34.402942 17.538901
RightToeBase 9.487255 -0.000000 -0.000000
1583
root 5.685804 32.955155 -1.112301 -7.773355 -15.184682 -12.579501
Spine 14.961646 4.892239 10.213800
Head 5.915937 -0.365515 4.164323
LeftShoulder -13.984608 -6.309569 29.353619
LeftArm 5.737257 -2.153255 -76.207443
LeftForeArm -18.396547 -0.000000 124.459857
LeftHand -0.325189 -0.000000 2.350768
LeftHandThumb1 -26.253704 0.000000 33.147579
RightShoulder -18.117789 -17.920325 -19.642252
RightArm 7.689868 -25.547467 86.959486
RightForeArm -18.005965 -0.000000 23.089426
RightHand 17.108297 -0.000000 7.439425
RightHandThumb1 -24.326973 -0.000000 -32.862282
LeftUpLeg 14.223784 10.993420 6.399978
LeftLeg 0.882696 -0.000000 -0.000000
LeftFoot -19.661642 19.157886 -16.824966
LeftToeBase 20.122719 -0.000000 -0.000000
RightUpLeg -75.401915 6.504607 21.678953
RightLeg 102.332946 -0.000000 -0.000000
RightFoot 18.218701 -34.406389 17.540713
RightToeBase 10.426293 -0.000000 -0.000000
1584
root 5.693318 32.954960 -1.120702 -7.774837 -15.157159 -12.575363
Spine 14.988308 4.771034 10.143837
Head 5.876674 -0.321229 4.216491
LeftShoulder -13.956240 -6.293663 29.405120
LeftArm 5.757540 -2.195771 -76.219318
LeftForeArm -18.536635 -0.000000 124.417803
LeftHand -0.267962 -0.000000 2.276932
LeftHandThumb1 -26.253704 0.000000 33.147579
RightShoulder -18.155595 -17.932405 -19.605264
RightArm 7.671260 -25.594661 86.978146
RightForeArm -18.030997 -0.000000 23.038378
RightHand 17.160412 -0.000000 7.377001
RightHandThumb1 -24.326973 -0.000000 -32.862282
LeftUpLeg 14.193020 11.015449 6.387813
LeftLeg 0.893314 -0.000000 -0.000000
LeftFoot -19.631308 19.138015 -16.768737
LeftToeBase 20.174037 -0.000000 -0.000000
RightUpLeg -75.434246 6.418716 21.575842
RightLeg 102.216920 -0.000000 -0.000000
RightFoot 18.272150 -34.414706 17.436968
RightToeBase 9.304362 -0.000000 -0.000000
1585
root 5.702054 32.953943 -1.128360 -7.760058 -15.142831 -12.559441
Spine 14.987165 4.659102 10.061905
Head 5.850746 -0.269126 4.262855
LeftShoulder -13.922453 -6.318399 29.434604
LeftArm 5.729960 -2.307811 -76.209982
LeftForeArm -18.650522 -0.000000 124.389948
LeftHand -0.241696 -0.000000 2.075833
LeftHandThumb1 -26.253704 0.000000 33.147579
RightShoulder -18.176376 -17.965156 -19.570186
RightArm 7.656499 -25.570567 87.006779
RightForeArm -18.092510 -0.000000 22.991317
RightHand 17.148016 0.000000 7.446227
RightHandThumb1 -24.326973 -0.000000 -32.862282
LeftUpLeg 14.145325 11.015733 6.349019
LeftLeg 0.904246 -0.000000 -0.000000
LeftFoot -19.617931 19.155962 -16.755784
LeftToeBase 20.149561 -0.000000 -0.000000
RightUpLeg -75.493355 6.354858 21.455565
RightLeg 102.137502 -0.000000 -0.000000
RightFoot 18.219006 -34.450870 17.527775
RightToeBase 9.028062 -0.000000 -0.000000
